<?xml version="1.0" encoding="UTF-8" standalone="no"?>
<!DOCTYPE svg PUBLIC "-//W3C//DTD SVG 1.1//EN" "http://www.w3.org/Graphics/SVG/1.1/DTD/svg11.dtd">
<svg width="100%" height="100%" viewBox="0 0 256 71" version="1.1" xmlns="http://www.w3.org/2000/svg" xmlns:xlink="http://www.w3.org/1999/xlink" xml:space="preserve" xmlns:serif="http://www.serif.com/" style="fill-rule:evenodd;clip-rule:evenodd;stroke-linecap:round;stroke-linejoin:round;">
    <g transform="matrix(1.33333,0,0,1.33333,0,0)">
        <g id="Layer-1" serif:id="Layer 1" transform="matrix(1,0,0,1,-83.8649,-125.605)">
            <g id="text113">
                <path id="path455" d="M147.95,148.655L147.95,139.866L153.223,139.866L153.223,162.659L147.95,162.659L147.95,160.286C147.227,161.253 146.431,161.961 145.562,162.41C144.693,162.86 143.687,163.084 142.545,163.084C140.523,163.084 138.863,162.283 137.564,160.682C136.265,159.07 135.616,157 135.616,154.471C135.616,151.942 136.265,149.876 137.564,148.275C138.863,146.663 140.523,145.858 142.545,145.858C143.677,145.858 144.678,146.087 145.548,146.546C146.426,146.995 147.227,147.698 147.95,148.655ZM144.493,159.276C145.616,159.276 146.47,158.865 147.056,158.045C147.652,157.225 147.95,156.033 147.95,154.471C147.95,152.908 147.652,151.717 147.056,150.897C146.47,150.076 145.616,149.666 144.493,149.666C143.38,149.666 142.525,150.076 141.929,150.897C141.343,151.717 141.05,152.908 141.05,154.471C141.05,156.033 141.343,157.225 141.929,158.045C142.525,158.865 143.38,159.276 144.493,159.276Z" style="fill-rule:nonzero;"/>
                <path id="path457" d="M165.616,155.277C164.522,155.277 163.697,155.462 163.14,155.833C162.593,156.204 162.32,156.751 162.32,157.474C162.32,158.138 162.54,158.66 162.979,159.041C163.428,159.412 164.048,159.598 164.839,159.598C165.826,159.598 166.656,159.246 167.33,158.543C168.003,157.83 168.34,156.942 168.34,155.877L168.34,155.277L165.616,155.277ZM173.628,153.299L173.628,162.659L168.34,162.659L168.34,160.228C167.637,161.224 166.846,161.951 165.967,162.41C165.088,162.86 164.019,163.084 162.759,163.084C161.06,163.084 159.678,162.591 158.614,161.605C157.559,160.609 157.032,159.319 157.032,157.737C157.032,155.814 157.691,154.403 159.009,153.504C160.338,152.606 162.418,152.156 165.25,152.156L168.34,152.156L168.34,151.746C168.34,150.916 168.013,150.311 167.359,149.93C166.705,149.539 165.684,149.344 164.297,149.344C163.174,149.344 162.129,149.456 161.163,149.681C160.196,149.905 159.297,150.242 158.467,150.692L158.467,146.693C159.59,146.419 160.718,146.214 161.851,146.077C162.984,145.931 164.117,145.858 165.25,145.858C168.209,145.858 170.342,146.444 171.651,147.615C172.969,148.778 173.628,150.672 173.628,153.299L173.628,153.299Z" style="fill-rule:nonzero;"/>
                <path id="path459" d="M184.234,141.595L184.234,146.253L189.639,146.253L189.639,150.003L184.234,150.003L184.234,156.961C184.234,157.723 184.385,158.24 184.688,158.514C184.991,158.777 185.591,158.909 186.49,158.909L189.185,158.909L189.185,162.659L184.688,162.659C182.618,162.659 181.148,162.23 180.279,161.37C179.419,160.501 178.99,159.031 178.99,156.961L178.99,150.003L176.382,150.003L176.382,146.253L178.99,146.253L178.99,141.595L184.234,141.595Z" style="fill-rule:nonzero;"/>
                <path id="path461" d="M200.201,155.277C199.107,155.277 198.282,155.462 197.725,155.833C197.178,156.204 196.905,156.751 196.905,157.474C196.905,158.138 197.124,158.66 197.564,159.041C198.013,159.412 198.633,159.598 199.424,159.598C200.411,159.598 201.241,159.246 201.915,158.543C202.588,157.83 202.925,156.942 202.925,155.877L202.925,155.277L200.201,155.277ZM208.213,153.299L208.213,162.659L202.925,162.659L202.925,160.228C202.222,161.224 201.431,161.951 200.552,162.41C199.673,162.86 198.604,163.084 197.344,163.084C195.645,163.084 194.263,162.591 193.199,161.605C192.144,160.609 191.617,159.319 191.617,157.737C191.617,155.814 192.276,154.403 193.594,153.504C194.922,152.606 197.002,152.156 199.834,152.156L202.925,152.156L202.925,151.746C202.925,150.916 202.598,150.311 201.944,149.93C201.29,149.539 200.269,149.344 198.882,149.344C197.759,149.344 196.714,149.456 195.748,149.681C194.781,149.905 193.882,150.242 193.052,150.692L193.052,146.693C194.175,146.419 195.303,146.214 196.436,146.077C197.569,145.931 198.702,145.858 199.834,145.858C202.793,145.858 204.927,146.444 206.236,147.615C207.554,148.778 208.213,150.672 208.213,153.299L208.213,153.299Z" style="fill-rule:nonzero;"/>
                <path id="path463" d="M211.465,146.253L214.322,146.253L219.449,160.023L224.576,146.253L227.432,146.253L221.28,162.659L217.618,162.659L211.465,146.253Z" style="fill-rule:nonzero;"/>
                <path id="path465" d="M229.981,146.253L242.784,146.253L242.784,148.714L232.647,160.506L242.784,160.506L242.784,162.659L229.615,162.659L229.615,160.198L239.751,148.406L229.981,148.406L229.981,146.253Z" style="fill-rule:nonzero;"/>
                <path id="path467" d="M256.407,148.773C256.104,148.597 255.772,148.47 255.41,148.392C255.059,148.304 254.668,148.26 254.239,148.26C252.715,148.26 251.543,148.758 250.723,149.754C249.912,150.74 249.507,152.161 249.507,154.017L249.507,162.659L246.797,162.659L246.797,146.253L249.507,146.253L249.507,148.802C250.074,147.806 250.811,147.069 251.719,146.59C252.627,146.102 253.731,145.858 255.03,145.858C255.215,145.858 255.42,145.872 255.645,145.902C255.869,145.921 256.118,145.955 256.392,146.004L256.407,148.773Z" style="fill-rule:nonzero;"/>
                <path id="path469" d="M269.502,148.743L269.502,139.866L272.198,139.866L272.198,162.659L269.502,162.659L269.502,160.198C268.936,161.175 268.218,161.902 267.349,162.381C266.49,162.85 265.454,163.084 264.243,163.084C262.261,163.084 260.645,162.293 259.395,160.711C258.155,159.129 257.534,157.049 257.534,154.471C257.534,151.893 258.155,149.813 259.395,148.231C260.645,146.649 262.261,145.858 264.243,145.858C265.454,145.858 266.49,146.097 267.349,146.575C268.218,147.044 268.936,147.767 269.502,148.743ZM260.318,154.471C260.318,156.453 260.723,158.011 261.533,159.144C262.354,160.267 263.477,160.828 264.903,160.828C266.328,160.828 267.451,160.267 268.272,159.144C269.092,158.011 269.502,156.453 269.502,154.471C269.502,152.488 269.092,150.936 268.272,149.813C267.451,148.68 266.328,148.113 264.903,148.113C263.477,148.113 262.354,148.68 261.533,149.813C260.723,150.936 260.318,152.488 260.318,154.471Z" style="fill-rule:nonzero;"/>
            </g>
            <g id="g174" transform="matrix(0.264583,0,0,0.264583,117.353,151.68)">
                <path id="line159" d="M51.024,56.693L51.024,28.346" style="fill:none;fill-rule:nonzero;stroke:black;stroke-width:5.67px;"/>
                <path id="line161" d="M34.016,56.693L34.016,11.339" style="fill:none;fill-rule:nonzero;stroke:black;stroke-width:5.67px;"/>
                <path id="line163" d="M17.008,56.693L17.008,39.685" style="fill:none;fill-rule:nonzero;stroke:black;stroke-width:5.67px;"/>
            </g>
            <g id="g279" transform="matrix(0.264583,0,0,0.264583,95.9946,124.603)">
                <path id="path270" d="M14.173,14.173L2.835,14.173C-0.275,14.173 -2.835,16.732 -2.835,19.843L-2.835,31.181M14.173,14.173L42.52,14.173C45.63,14.173 48.189,16.732 48.189,19.843L48.189,31.181M14.173,14.173L14.173,65.197M14.173,65.197L42.52,65.197C45.63,65.197 48.189,62.638 48.189,59.528L48.189,31.181M14.173,65.197L2.835,65.197C-0.275,65.197 -2.835,62.638 -2.835,59.528L-2.835,31.181M-2.835,31.181L48.189,31.181" style="fill:none;fill-rule:nonzero;stroke:black;stroke-width:5.67px;"/>
            </g>
            <g id="g340" transform="matrix(0.264583,0,0,0.264583,83.3813,156.488)">
                <path id="line325" d="M34.016,56.693L34.016,28.346" style="fill:none;fill-rule:nonzero;stroke:black;stroke-width:5.67px;"/>
                <path id="line327" d="M51.024,56.693L51.024,11.339" style="fill:none;fill-rule:nonzero;stroke:black;stroke-width:5.67px;"/>
                <path id="line329" d="M17.008,56.693L17.008,45.354" style="fill:none;fill-rule:nonzero;stroke:black;stroke-width:5.67px;"/>
            </g>
            <path id="path1285" d="M88.864,162.057C87.798,159.538 87.209,156.768 87.209,153.861M87.209,153.861C87.209,150.954 87.798,148.184 88.864,145.665C89.689,143.749 90.85,141.998 92.243,140.447M112.664,133.504C114.068,133.852 115.405,134.313 116.668,134.875C119.194,136 121.42,137.534 123.273,139.396C125.125,141.258 126.604,143.448 127.636,145.885C128.669,148.323 129.254,151.008 129.32,153.861M123.153,168.75C119.342,172.56 114.079,174.917 108.264,174.917M108.264,174.917C105.357,174.917 102.588,174.328 100.069,173.262" style="fill:none;fill-rule:nonzero;stroke:black;stroke-width:1.5px;stroke-linejoin:miter;"/>
        </g>
    </g>
</svg>
